<?xml version="1.0" encoding="UTF-8"?>
<svg xmlns="http://www.w3.org/2000/svg" width="450" height="630" viewBox="0 0 450 630">
  <defs>
    <linearGradient id="frame" x1="0" y1="0" x2="1" y2="1">
      <stop offset="0" stop-color="#2f3e46"/>
      <stop offset="0.52" stop-color="#cad2c5"/>
      <stop offset="1" stop-color="#0f1720"/>
    </linearGradient>
    <linearGradient id="paper" x1="0" y1="0" x2="0" y2="1">
      <stop offset="0" stop-color="#fff7df"/>
      <stop offset="1" stop-color="#e8d5aa"/>
    </linearGradient>
    <linearGradient id="artSky" x1="0" y1="0" x2="0" y2="1">
      <stop offset="0" stop-color="#f8df9b"/>
      <stop offset="0.55" stop-color="#c88445"/>
      <stop offset="1" stop-color="#5f2f24"/>
    </linearGradient>
    <filter id="softShadow" x="-12%" y="-12%" width="124%" height="124%">
      <feDropShadow dx="0" dy="7" stdDeviation="6" flood-color="#000000" flood-opacity="0.28"/>
    </filter>
    <clipPath id="artClip">
      <rect x="38" y="142" width="374" height="208" rx="14"/>
    </clipPath>
  </defs>
  <rect width="450" height="630" rx="30" fill="#15100c"/>
  <rect x="15" y="15" width="420" height="600" rx="24" fill="url(#frame)" filter="url(#softShadow)"/>
  <rect x="27" y="27" width="396" height="576" rx="18" fill="#19130e" opacity="0.2"/>
  <rect x="31" y="31" width="388" height="568" rx="16" fill="none" stroke="#fff2c4" stroke-opacity="0.72" stroke-width="2.5"/>

  <rect x="37" y="39" width="376" height="82" rx="13" fill="#1b1611" opacity="0.82"/>
  <text x="52" y="74" font-family="Arial, 'PingFang SC', sans-serif" font-size="29" font-weight="900" fill="#fff7dc">说服论点</text>
  
  <text x="53" y="112" font-family="Arial, 'PingFang SC', sans-serif" font-size="14" font-weight="800" fill="#dfc079">起始牌 1-4</text>
  
  <circle cx="379" cy="80" r="31" fill="#f5d27f" stroke="#25180c" stroke-width="4"/>
  <circle cx="379" cy="80" r="23" fill="#20140d"/>
  <text x="379" y="92" text-anchor="middle" font-family="Arial, sans-serif" font-size="32" font-weight="900" fill="#fff2c4">0</text>

  <rect x="33" y="137" width="384" height="218" rx="17" fill="#110d09" opacity="0.78"/>
  <g clip-path="url(#artClip)">
    
    <rect x="38" y="142" width="374" height="208" fill="url(#artSky)"/>
    <circle cx="333" cy="189" r="46" fill="#ffe8a3" opacity="0.9"/>
    <path d="M38 229 C100 195, 164 251, 224 225 C291 196, 348 239, 412 214 L412 350 L38 350 Z" fill="#0f1720" opacity="0.52"/>
    <path d="M38 294 C132 269, 180 312, 265 290 C332 273, 371 310, 412 298 L412 350 L38 350 Z" fill="#2a170f" opacity="0.62"/>
    <path d="M62 320 C135 292, 190 328, 250 304 C307 282, 355 305, 398 291" fill="none" stroke="#f5d27f" stroke-opacity="0.44" stroke-width="4"/>
    <path d="M88 338 C161 314, 233 342, 331 323" fill="none" stroke="#f8e6aa" stroke-opacity="0.28" stroke-width="3"/>
    <path d="M146 294 C179 231, 203 203, 225 193 C247 203, 271 231, 304 294 C264 276, 186 276, 146 294 Z" fill="#fff2c4" opacity="0.86" stroke="#20140d" stroke-width="3"/><path d="M225 192 C212 236, 212 273, 225 315 C238 273, 238 236, 225 192 Z" fill="#20140d" opacity="0.72"/>
  
  </g>
  <rect x="38" y="142" width="374" height="208" rx="14" fill="none" stroke="#fff2c4" stroke-opacity="0.58" stroke-width="2"/>

  <g transform="translate(42 365)">
    <g transform="translate(0 0)"><rect width="112" height="25" rx="12.5" fill="#17120d" opacity="0.9" stroke="#fff2c4" stroke-opacity="0.34"/><text x="56" y="18" text-anchor="middle" font-family="Arial, 'PingFang SC', sans-serif" font-size="13" font-weight="900" fill="#fff3c2">揭示</text></g>
  </g>

  <rect x="34" y="419" width="382" height="160" rx="16" fill="url(#paper)" stroke="#3b2a18" stroke-opacity="0.28" stroke-width="1.5"/>
  
  <g>
    <rect x="51" y="430" width="56" height="24" rx="6" fill="#25180c" opacity="0.92"/>
    <text x="79" y="447" text-anchor="middle" font-family="Arial, 'PingFang SC', sans-serif" font-size="14" font-weight="900" fill="#f7d783">揭示</text>
    <text x="119" y="447" font-family="Arial, 'PingFang SC', sans-serif" font-size="17" font-weight="800" fill="#22160d">2 说服力，0 剑</text>
  </g>
  <text x="225" y="610" text-anchor="middle" font-family="Arial, sans-serif" font-size="11" font-weight="800" letter-spacing="2" fill="#fff7dc" opacity="0.64">PRIVATE TABLE CARD</text>
</svg>
