<?xml version="1.0" encoding="UTF-8"?>
<svg xmlns="http://www.w3.org/2000/svg" width="450" height="630" viewBox="0 0 450 630">
  <defs>
    <linearGradient id="frame" x1="0" y1="0" x2="1" y2="1">
      <stop offset="0" stop-color="#8b4e23"/>
      <stop offset="0.52" stop-color="#ffe0a3"/>
      <stop offset="1" stop-color="#241109"/>
    </linearGradient>
    <linearGradient id="paper" x1="0" y1="0" x2="0" y2="1">
      <stop offset="0" stop-color="#fff7df"/>
      <stop offset="1" stop-color="#e8d5aa"/>
    </linearGradient>
    <linearGradient id="artSky" x1="0" y1="0" x2="0" y2="1">
      <stop offset="0" stop-color="#f8df9b"/>
      <stop offset="0.55" stop-color="#c88445"/>
      <stop offset="1" stop-color="#5f2f24"/>
    </linearGradient>
    <filter id="softShadow" x="-12%" y="-12%" width="124%" height="124%">
      <feDropShadow dx="0" dy="7" stdDeviation="6" flood-color="#000000" flood-opacity="0.28"/>
    </filter>
    <clipPath id="artClip">
      <rect x="38" y="142" width="374" height="208" rx="14"/>
    </clipPath>
  </defs>
  <rect width="450" height="630" rx="30" fill="#15100c"/>
  <rect x="15" y="15" width="420" height="600" rx="24" fill="url(#frame)" filter="url(#softShadow)"/>
  <rect x="27" y="27" width="396" height="576" rx="18" fill="#19130e" opacity="0.2"/>
  <rect x="31" y="31" width="388" height="568" rx="16" fill="none" stroke="#fff2c4" stroke-opacity="0.72" stroke-width="2.5"/>

  <rect x="37" y="39" width="376" height="82" rx="13" fill="#1b1611" opacity="0.82"/>
  <text x="52" y="74" font-family="Arial, 'PingFang SC', sans-serif" font-size="29" font-weight="900" fill="#fff7dc">铺平道路</text>
  
  <text x="53" y="112" font-family="Arial, 'PingFang SC', sans-serif" font-size="14" font-weight="800" fill="#dfc079">保留牌 4/18</text>
  
  <circle cx="379" cy="80" r="31" fill="#f5d27f" stroke="#25180c" stroke-width="4"/>
  <circle cx="379" cy="80" r="23" fill="#20140d"/>
  <text x="379" y="92" text-anchor="middle" font-family="Arial, sans-serif" font-size="32" font-weight="900" fill="#fff2c4">4</text>

  <rect x="33" y="137" width="384" height="218" rx="17" fill="#110d09" opacity="0.78"/>
  <g clip-path="url(#artClip)">
    
    <rect x="38" y="142" width="374" height="208" fill="#3d6f76"/>
    <circle cx="229" cy="160" r="31" fill="#ddf5ff" opacity="0.86"/>
    
    <path d="M71 186 C127 169, 181 190, 232 174 C286 156, 339 180, 392 164" fill="none" stroke="#fff3bd" stroke-opacity="0.16" stroke-width="2"/>
    <path d="M38 245 C100 211, 164 267, 224 241 C291 212, 348 255, 412 230 L412 350 L38 350 Z" fill="#21444d" opacity="0.58"/>
    <path d="M38 237 C132 212, 180 255, 265 233 C332 216, 371 253, 412 241 L412 350 L38 350 Z" fill="#241109" opacity="0.62"/>
    <path d="M62 320 C135 292, 190 328, 250 304 C307 282, 355 305, 398 291" fill="none" stroke="#96e0d8" stroke-opacity="0.42" stroke-width="4"/>
    <path d="M88 338 C161 314, 233 342, 331 323" fill="none" stroke="#f8e6aa" stroke-opacity="0.28" stroke-width="3"/>
    
    <path d="M150 313 C164 263, 189 223, 224 205 C262 224, 286 264, 300 313 Z" fill="#96e0d8" opacity="0.80" stroke="#20140d" stroke-width="4"/>
    <circle cx="225" cy="223" r="21" fill="#20140d" opacity="0.82"/>
    <path d="M118 307 C157 280, 188 280, 225 306 C266 276, 307 281, 347 310" fill="none" stroke="#fff2c4" stroke-opacity="0.5" stroke-width="7" stroke-linecap="round"/>
    <path d="M128 240 L170 230 M280 230 L323 240" stroke="#fff2c4" stroke-width="5" stroke-linecap="round" opacity="0.66"/>
    <text x="396" y="335" text-anchor="end" font-family="Arial, sans-serif" font-size="18" font-weight="900" fill="#fff7dc" opacity="0.42">02</text>
  
  </g>
  <rect x="38" y="142" width="374" height="208" rx="14" fill="none" stroke="#fff2c4" stroke-opacity="0.58" stroke-width="2"/>

  <g transform="translate(42 365)">
    <g transform="translate(0 0)"><rect width="112" height="25" rx="12.5" fill="#17120d" opacity="0.9" stroke="#fff2c4" stroke-opacity="0.34"/><text x="56" y="18" text-anchor="middle" font-family="Arial, 'PingFang SC', sans-serif" font-size="13" font-weight="900" fill="#fff3c2">弗雷曼</text></g>
    <g transform="translate(122 0)"><rect width="112" height="25" rx="12.5" fill="#17120d" opacity="0.9" stroke="#fff2c4" stroke-opacity="0.34"/><text x="56" y="18" text-anchor="middle" font-family="Arial, 'PingFang SC', sans-serif" font-size="13" font-weight="900" fill="#fff3c2">沙漠</text></g>
  </g>

  <rect x="34" y="419" width="382" height="160" rx="16" fill="url(#paper)" stroke="#3b2a18" stroke-opacity="0.28" stroke-width="1.5"/>
  
  <g>
    <rect x="51" y="430" width="56" height="24" rx="6" fill="#25180c" opacity="0.92"/>
    <text x="79" y="447" text-anchor="middle" font-family="Arial, 'PingFang SC', sans-serif" font-size="14" font-weight="900" fill="#f7d783">特工</text>
    <text x="119" y="447" font-family="Arial, 'PingFang SC', sans-serif" font-size="17" font-weight="800" fill="#22160d">+1 水</text>
  </g>

  <g>
    <rect x="51" y="472" width="56" height="24" rx="6" fill="#25180c" opacity="0.92"/>
    <text x="79" y="489" text-anchor="middle" font-family="Arial, 'PingFang SC', sans-serif" font-size="14" font-weight="900" fill="#f7d783">揭示</text>
    <text x="119" y="489" font-family="Arial, 'PingFang SC', sans-serif" font-size="17" font-weight="800" fill="#22160d">2 说服力，0 剑</text>
  </g>
  <text x="225" y="610" text-anchor="middle" font-family="Arial, sans-serif" font-size="11" font-weight="800" letter-spacing="2" fill="#fff7dc" opacity="0.64">PRIVATE TABLE CARD</text>
</svg>
