<svg xmlns="http://www.w3.org/2000/svg" viewBox="0 0 1600 900" role="img" aria-label="Arrakis desert board">
  <defs>
    <linearGradient id="sky" x1="0" x2="1" y1="0" y2="1">
      <stop offset="0" stop-color="#17353c"/>
      <stop offset="0.42" stop-color="#a56556"/>
      <stop offset="1" stop-color="#d6bd7d"/>
    </linearGradient>
    <radialGradient id="sun" cx="62%" cy="22%" r="18%">
      <stop offset="0" stop-color="#f2d36c" stop-opacity="0.95"/>
      <stop offset="1" stop-color="#f2d36c" stop-opacity="0"/>
    </radialGradient>
    <linearGradient id="dune" x1="0" x2="1">
      <stop offset="0" stop-color="#b58a55"/>
      <stop offset="0.5" stop-color="#e2cf92"/>
      <stop offset="1" stop-color="#8d6452"/>
    </linearGradient>
  </defs>
  <rect width="1600" height="900" fill="url(#sky)"/>
  <rect width="1600" height="900" fill="url(#sun)"/>
  <path d="M0 560 C210 480 335 625 540 545 C760 455 930 570 1120 510 C1310 450 1430 500 1600 430 L1600 900 L0 900 Z" fill="url(#dune)" opacity="0.96"/>
  <path d="M0 680 C220 625 420 720 650 650 C840 595 1000 700 1220 625 C1390 570 1505 600 1600 560 L1600 900 L0 900 Z" fill="#6f776b" opacity="0.22"/>
  <g opacity="0.22" stroke="#fff4c7" stroke-width="3" fill="none">
    <path d="M80 690 C330 635 505 702 760 650"/>
    <path d="M430 760 C670 700 880 760 1070 700"/>
    <path d="M930 610 C1120 555 1320 600 1490 545"/>
  </g>
  <g opacity="0.2" fill="#10242b">
    <circle cx="260" cy="270" r="2"/>
    <circle cx="320" cy="245" r="1.5"/>
    <circle cx="1180" cy="180" r="2"/>
    <circle cx="1240" cy="220" r="1.4"/>
  </g>
</svg>
