<?xml version="1.0" encoding="UTF-8"?>
<svg xmlns="http://www.w3.org/2000/svg" width="450" height="630" viewBox="0 0 450 630">
  <defs>
    <linearGradient id="frame" x1="0" y1="0" x2="1" y2="1">
      <stop offset="0" stop-color="#bf6f2f"/>
      <stop offset="0.52" stop-color="#f3d18a"/>
      <stop offset="1" stop-color="#30170f"/>
    </linearGradient>
    <linearGradient id="paper" x1="0" y1="0" x2="0" y2="1">
      <stop offset="0" stop-color="#fff7df"/>
      <stop offset="1" stop-color="#e8d5aa"/>
    </linearGradient>
    <linearGradient id="artSky" x1="0" y1="0" x2="0" y2="1">
      <stop offset="0" stop-color="#f8df9b"/>
      <stop offset="0.55" stop-color="#c88445"/>
      <stop offset="1" stop-color="#5f2f24"/>
    </linearGradient>
    <filter id="softShadow" x="-12%" y="-12%" width="124%" height="124%">
      <feDropShadow dx="0" dy="7" stdDeviation="6" flood-color="#000000" flood-opacity="0.28"/>
    </filter>
    <clipPath id="artClip">
      <rect x="38" y="142" width="374" height="208" rx="14"/>
    </clipPath>
  </defs>
  <rect width="450" height="630" rx="30" fill="#15100c"/>
  <rect x="15" y="15" width="420" height="600" rx="24" fill="url(#frame)" filter="url(#softShadow)"/>
  <rect x="27" y="27" width="396" height="576" rx="18" fill="#19130e" opacity="0.2"/>
  <rect x="31" y="31" width="388" height="568" rx="16" fill="none" stroke="#fff2c4" stroke-opacity="0.72" stroke-width="2.5"/>

  <rect x="37" y="39" width="376" height="82" rx="13" fill="#1b1611" opacity="0.82"/>
  <text x="52" y="74" font-family="Arial, 'PingFang SC', sans-serif" font-size="29" font-weight="900" fill="#fff7dc">沙虫骑手</text>
  
  <text x="53" y="112" font-family="Arial, 'PingFang SC', sans-serif" font-size="14" font-weight="800" fill="#dfc079">帝国牌 45/69</text>
  
  <circle cx="379" cy="80" r="31" fill="#f5d27f" stroke="#25180c" stroke-width="4"/>
  <circle cx="379" cy="80" r="23" fill="#20140d"/>
  <text x="379" y="92" text-anchor="middle" font-family="Arial, sans-serif" font-size="32" font-weight="900" fill="#fff2c4">6</text>

  <rect x="33" y="137" width="384" height="218" rx="17" fill="#110d09" opacity="0.78"/>
  <g clip-path="url(#artClip)">
    
    <rect x="38" y="142" width="374" height="208" fill="#d59a56"/>
    <circle cx="255" cy="185" r="42" fill="#ffe4a0" opacity="0.86"/>
    
    <path d="M71 186 C127 169, 181 190, 232 174 C286 156, 339 180, 392 164" fill="none" stroke="#fff3bd" stroke-opacity="0.16" stroke-width="2"/>
    <path d="M38 247 C100 213, 164 269, 224 243 C291 214, 348 257, 412 232 L412 350 L38 350 Z" fill="#5a2d1f" opacity="0.58"/>
    <path d="M38 282 C132 257, 180 300, 265 278 C332 261, 371 298, 412 286 L412 350 L38 350 Z" fill="#30170f" opacity="0.62"/>
    <path d="M62 320 C135 292, 190 328, 250 304 C307 282, 355 305, 398 291" fill="none" stroke="#96e0d8" stroke-opacity="0.42" stroke-width="4"/>
    <path d="M88 338 C161 314, 233 342, 331 323" fill="none" stroke="#f8e6aa" stroke-opacity="0.28" stroke-width="3"/>
    
    <path d="M112 301 C151 230, 219 185, 318 178 C283 219, 260 250, 258 311 C210 282, 164 286, 112 301 Z" fill="#96e0d8" opacity="0.82" stroke="#20140d" stroke-width="4"/>
    <ellipse cx="280" cy="208" rx="42" ry="30" fill="#20140d" opacity="0.88"/>
    <path d="M251 184 L258 231" stroke="#f6d092" stroke-width="3" opacity="0.7"/><path d="M258 184 L265 231" stroke="#f6d092" stroke-width="3" opacity="0.7"/><path d="M265 184 L272 231" stroke="#f6d092" stroke-width="3" opacity="0.7"/><path d="M272 184 L279 231" stroke="#f6d092" stroke-width="3" opacity="0.7"/><path d="M279 184 L286 231" stroke="#f6d092" stroke-width="3" opacity="0.7"/><path d="M286 184 L293 231" stroke="#f6d092" stroke-width="3" opacity="0.7"/><path d="M293 184 L300 231" stroke="#f6d092" stroke-width="3" opacity="0.7"/><path d="M300 184 L307 231" stroke="#f6d092" stroke-width="3" opacity="0.7"/><path d="M307 184 L314 231" stroke="#f6d092" stroke-width="3" opacity="0.7"/>
    <text x="396" y="335" text-anchor="end" font-family="Arial, sans-serif" font-size="18" font-weight="900" fill="#fff7dc" opacity="0.42">03</text>
  
  </g>
  <rect x="38" y="142" width="374" height="208" rx="14" fill="none" stroke="#fff2c4" stroke-opacity="0.58" stroke-width="2"/>

  <g transform="translate(42 365)">
    <g transform="translate(0 0)"><rect width="112" height="25" rx="12.5" fill="#17120d" opacity="0.9" stroke="#fff2c4" stroke-opacity="0.34"/><text x="56" y="18" text-anchor="middle" font-family="Arial, 'PingFang SC', sans-serif" font-size="13" font-weight="900" fill="#fff3c2">弗雷曼</text></g>
    <g transform="translate(122 0)"><rect width="112" height="25" rx="12.5" fill="#17120d" opacity="0.9" stroke="#fff2c4" stroke-opacity="0.34"/><text x="56" y="18" text-anchor="middle" font-family="Arial, 'PingFang SC', sans-serif" font-size="13" font-weight="900" fill="#fff3c2">沙漠</text></g>
    <g transform="translate(244 0)"><rect width="112" height="25" rx="12.5" fill="#17120d" opacity="0.9" stroke="#fff2c4" stroke-opacity="0.34"/><text x="56" y="18" text-anchor="middle" font-family="Arial, 'PingFang SC', sans-serif" font-size="13" font-weight="900" fill="#fff3c2">战斗</text></g>
  </g>

  <rect x="34" y="419" width="382" height="160" rx="16" fill="url(#paper)" stroke="#3b2a18" stroke-opacity="0.28" stroke-width="1.5"/>
  
  <g>
    <rect x="51" y="430" width="56" height="24" rx="6" fill="#25180c" opacity="0.92"/>
    <text x="79" y="447" text-anchor="middle" font-family="Arial, 'PingFang SC', sans-serif" font-size="14" font-weight="900" fill="#f7d783">特工</text>
    <text x="119" y="447" font-family="Arial, 'PingFang SC', sans-serif" font-size="17" font-weight="800" fill="#22160d">获得 Maker Hooks，可召唤沙虫</text>
  </g>

  <g>
    <rect x="51" y="472" width="56" height="24" rx="6" fill="#25180c" opacity="0.92"/>
    <text x="79" y="489" text-anchor="middle" font-family="Arial, 'PingFang SC', sans-serif" font-size="14" font-weight="900" fill="#f7d783">揭示</text>
    <text x="119" y="489" font-family="Arial, 'PingFang SC', sans-serif" font-size="17" font-weight="800" fill="#22160d">1 说服力，2 剑</text>
  </g>
  <text x="225" y="610" text-anchor="middle" font-family="Arial, sans-serif" font-size="11" font-weight="800" letter-spacing="2" fill="#fff7dc" opacity="0.64">PRIVATE TABLE CARD</text>
</svg>
